<svg xmlns="http://www.w3.org/2000/svg" viewBox="0 0 128 128">
  <defs>
    <linearGradient id="a" x1="16" y1="18" x2="88" y2="108" gradientUnits="userSpaceOnUse"><stop stop-color="#08d7f5"/><stop offset=".48" stop-color="#4f16e5"/><stop offset="1" stop-color="#1c3aed"/></linearGradient>
    <linearGradient id="b" x1="20" y1="14" x2="101" y2="103" gradientUnits="userSpaceOnUse"><stop stop-color="#23d9f6"/><stop offset=".5" stop-color="#4777ff"/><stop offset="1" stop-color="#9b28f5"/></linearGradient>
  </defs>
  <rect width="128" height="128" rx="25" fill="#0f172a"/>
  <path d="M20 103V25l20 20v42l-20 16Z" fill="url(#a)"/>
  <path d="M20 25h22l49 58v23H73L20 46V25Z" fill="url(#b)"/>
  <path d="M40 45 57 64 40 87V45Z" fill="#117be9" opacity=".8"/>
  <g fill="none" stroke-linecap="round" stroke-width="3">
    <path d="M80 87V57l10-10V30" stroke="#4f16e5"/><path d="M87 94V70l13-13V44" stroke="#752ded"/><path d="M74 79V49l8-8V20" stroke="#08a9e7"/><path d="M94 98V82l11-11" stroke="#9b28f5"/>
  </g>
  <g fill="#08c9ef"><circle cx="90" cy="26" r="5"/><circle cx="82" cy="16" r="5"/><circle cx="100" cy="40" r="5"/></g><circle cx="106" cy="69" r="5" fill="#8735ee"/>
</svg>
